<?xml version="1.0" encoding="utf-8"?>
<!-- Generator: Adobe Illustrator 19.1.0, SVG Export Plug-In . SVG Version: 6.00 Build 0)  -->
<svg version="1.1" id="Layer_1" xmlns="http://www.w3.org/2000/svg" xmlns:xlink="http://www.w3.org/1999/xlink" x="0px" y="0px"
	 viewBox="0 0 240 200" style="enable-background:new 0 0 240 200;" xml:space="preserve">
<style type="text/css">
	.st0{fill:#FFFFFF;}
	.st1{fill:#FF7800;}
	.st2{fill:#F0562B;}
	.st3{fill:#EF5323;}
	.st4{fill:#F8961D;}
</style>
<polygon class="st0" points="2,101.9 2,7.4 9.8,2.9 58.3,30.9 58.3,128 50.5,129.9 "/>
<path class="st1" d="M93.3,154.7c0,0,1-3.3,3.6-6.9c2.4-3.4,6.1-7.1,11.7-8.9c-5.5,4.9-7.5,11.3-7.5,11.3L93.3,154.7z"/>
<polygon class="st2" points="87.7,56.9 87.7,151.4 50.5,129.9 50.5,35.4 "/>
<path class="st1" d="M225.8,196.1c2.7-1.6,4.4-4.9,4.4-9.6c0-4.7-1.7-10-4.4-14.7c-2.7-4.7-6.4-8.7-10.5-11.1l-12.6-7.3l-12.6-7.3
	c-12.7-7.4-19.9-10.3-27.1-13.2c-7.2-2.9-14.3-5.8-26.9-13.1c-16.8-9.7-27.4-24.6-33.9-37c-6.5-12.5-8.8-22.5-8.8-22.5l7.8-4.5
	c0,0,2.3,10,8.8,22.5c6.5,12.5,17.1,27.4,33.9,37c12.7,7.3,19.8,10.2,26.9,13.1c7.2,2.9,14.3,5.9,27.1,13.2l12.6,7.3l12.6,7.3
	c4.1,2.4,7.8,6.4,10.5,11.1c2.7,4.7,4.4,9.9,4.4,14.7c0,4.7-1.7,8.1-4.4,9.6L225.8,196.1z"/>
<polygon class="st1" points="101.1,55.7 93.3,60.2 87.7,56.9 95.5,52.4 "/>
<polygon class="st3" points="58.3,30.9 50.5,35.4 87.7,56.9 95.5,52.4 "/>
<g>
	<polygon class="st4" points="50.5,36.6 26.2,22.6 2,8.6 2,8 2,7.4 26.2,21.4 50.5,35.4 50.5,36 	"/>
</g>
<g>
	<polygon class="st1" points="51,35.1 51.5,34.8 27.2,20.9 3,6.9 2.5,7.1 	"/>
</g>
<g>
	<polygon class="st1" points="8.8,3.5 57.3,31.5 58.3,30.9 9.8,2.9 	"/>
</g>
<g>
	<polygon class="st1" points="7.4,4.3 55.9,32.3 56.9,31.7 8.4,3.7 	"/>
</g>
<g>
	<polygon class="st1" points="6.1,5.1 54.6,33.1 55.6,32.5 7.1,4.5 	"/>
</g>
<g>
	<polygon class="st1" points="4.7,5.9 53.2,33.9 54.2,33.3 5.7,5.3 	"/>
</g>
<g>
	<polygon class="st1" points="3.4,6.7 51.8,34.6 52.8,34.1 4.4,6.1 	"/>
</g>
<g>
	<polygon class="st4" points="50.5,129.9 2,101.9 2,100.8 50.5,128.8 	"/>
</g>
<g>
	<polygon class="st4" points="50.5,128 2,100 2,98.9 50.5,126.9 	"/>
</g>
<g>
	<polygon class="st4" points="50.5,126.1 2,98.1 2,97 50.5,125 	"/>
</g>
<g>
	<polygon class="st4" points="50.5,124.2 2,96.2 2,95.1 50.5,123.1 	"/>
</g>
<g>
	<polygon class="st4" points="50.5,122.3 2,94.3 2,93.2 50.5,121.2 	"/>
</g>
<g>
	<polygon class="st4" points="50.5,120.4 2,92.4 2,91.3 50.5,119.2 	"/>
</g>
<g>
	<polygon class="st4" points="50.5,118.5 2,90.5 2,89.3 50.5,117.3 	"/>
</g>
<g>
	<polygon class="st4" points="50.5,116.6 2,88.6 2,87.4 50.5,115.4 	"/>
</g>
<g>
	<polygon class="st4" points="50.5,114.7 2,86.7 2,85.5 50.5,113.5 	"/>
</g>
<g>
	<polygon class="st4" points="50.5,112.8 2,84.8 2,83.6 50.5,111.6 	"/>
</g>
<g>
	<polygon class="st4" points="50.5,110.9 2,82.9 2,81.7 50.5,109.7 	"/>
</g>
<g>
	<polygon class="st4" points="50.5,109 2,81 2,79.8 50.5,107.8 	"/>
</g>
<g>
	<polygon class="st4" points="50.5,107.1 2,79.1 2,77.9 50.5,105.9 	"/>
</g>
<g>
	<polygon class="st4" points="50.5,105.2 2,77.2 2,76 50.5,104 	"/>
</g>
<g>
	<polygon class="st4" points="50.5,103.3 2,75.3 2,74.1 50.5,102.1 	"/>
</g>
<g>
	<polygon class="st4" points="50.5,101.4 2,73.4 2,72.2 50.5,100.2 	"/>
</g>
<g>
	<polygon class="st4" points="50.5,99.4 2,71.5 2,70.3 50.5,98.3 	"/>
</g>
<g>
	<polygon class="st4" points="50.5,97.5 2,69.6 2,68.4 50.5,96.4 	"/>
</g>
<g>
	<polygon class="st4" points="50.5,95.6 2,67.6 2,66.5 50.5,94.5 	"/>
</g>
<g>
	<polygon class="st4" points="50.5,93.7 2,65.7 2,64.6 50.5,92.6 	"/>
</g>
<g>
	<polygon class="st4" points="50.5,91.8 2,63.8 2,62.7 50.5,90.7 	"/>
</g>
<g>
	<polygon class="st4" points="50.5,89.9 2,61.9 2,60.8 50.5,88.8 	"/>
</g>
<g>
	<polygon class="st4" points="50.5,88 2,60 2,58.9 50.5,86.9 	"/>
</g>
<g>
	<polygon class="st4" points="50.5,86.1 2,58.1 2,57 50.5,85 	"/>
</g>
<g>
	<polygon class="st4" points="50.5,84.2 2,56.2 2,55.1 50.5,83.1 	"/>
</g>
<g>
	<polygon class="st4" points="50.5,82.3 2,54.3 2,53.2 50.5,81.1 	"/>
</g>
<g>
	<polygon class="st4" points="50.5,80.4 2,52.4 2,51.3 50.5,79.2 	"/>
</g>
<g>
	<polygon class="st4" points="50.5,78.5 2,50.5 2,49.3 50.5,77.3 	"/>
</g>
<g>
	<polygon class="st4" points="50.5,76.6 2,48.6 2,47.4 50.5,75.4 	"/>
</g>
<g>
	<polygon class="st4" points="50.5,74.7 2,46.7 2,45.5 50.5,73.5 	"/>
</g>
<g>
	<polygon class="st4" points="50.5,72.8 2,44.8 2,43.6 50.5,71.6 	"/>
</g>
<g>
	<polygon class="st4" points="50.5,70.9 2,42.9 2,41.7 50.5,69.7 	"/>
</g>
<g>
	<polygon class="st4" points="50.5,69 2,41 2,39.8 50.5,67.8 	"/>
</g>
<g>
	<polygon class="st4" points="50.5,67.1 2,39.1 2,37.9 50.5,65.9 	"/>
</g>
<g>
	<polygon class="st4" points="50.5,65.2 2,37.2 2,36 50.5,64 	"/>
</g>
<g>
	<polygon class="st4" points="50.5,63.3 2,35.3 2,34.1 50.5,62.1 	"/>
</g>
<g>
	<polygon class="st4" points="50.5,61.3 2,33.4 2,32.2 50.5,60.2 	"/>
</g>
<g>
	<polygon class="st4" points="50.5,59.4 2,31.5 2,30.3 50.5,58.3 	"/>
</g>
<g>
	<polygon class="st4" points="50.5,57.5 2,29.5 2,28.4 50.5,56.4 	"/>
</g>
<g>
	<polygon class="st4" points="50.5,55.6 2,27.6 2,26.5 50.5,54.5 	"/>
</g>
<g>
	<polygon class="st4" points="50.5,53.7 2,25.7 2,24.6 50.5,52.6 	"/>
</g>
<g>
	<polygon class="st4" points="50.5,51.8 2,23.8 2,22.7 50.5,50.7 	"/>
</g>
<g>
	<polygon class="st4" points="50.5,49.9 2,21.9 2,20.8 50.5,48.8 	"/>
</g>
<g>
	<polygon class="st4" points="50.5,48 2,20 2,18.9 50.5,46.9 	"/>
</g>
<g>
	<polygon class="st4" points="50.5,46.1 2,18.1 2,17 50.5,45 	"/>
</g>
<g>
	<polygon class="st4" points="50.5,44.2 2,16.2 2,15.1 50.5,43 	"/>
</g>
<g>
	<polygon class="st4" points="50.5,42.3 2,14.3 2,13.2 50.5,41.1 	"/>
</g>
<g>
	<polygon class="st4" points="50.5,40.4 2,12.4 2,11.2 50.5,39.2 	"/>
</g>
<g>
	<polygon class="st4" points="50.5,38.5 2,10.5 2,9.3 50.5,37.3 	"/>
</g>
<path class="st4" d="M215.3,160.7L190,146.1c-25.5-14.7-28.7-11.7-54-26.4c-33.5-19.4-42.7-59.5-42.7-59.5l-5.6-3.2v47.2v47.2
	l5.6,3.2c0,0,9.1-29.6,42.7-10.3c25.3,14.6,28.5,21.3,54,36l25.3,14.6c8.2,4.7,14.9,0.9,14.9-8.6C230.2,177,223.5,165.4,215.3,160.7
	z M215.3,169c4.1,2.5,7.4,8.1,7.4,12.9C218.7,179.5,215.4,173.8,215.3,169z"/>
<path class="st1" d="M222.8,181.9c-4.1-2.5-7.4-8.1-7.4-12.9c-0.1,0-0.1-0.1-0.2-0.1c-4.2-2.4-7.6-0.5-7.6,4.4c0,3.7,2,8,4.8,11
	c0.9,0.9,1.8,1.7,2.8,2.3c1,0.6,1.9,0.9,2.8,1c2.8,0.3,4.8-1.7,4.8-5.4C222.8,182.1,222.8,182,222.8,181.9z"/>
</svg>
