<?xml version="1.0" encoding="utf-8"?>
<!-- Generator: Adobe Illustrator 19.1.0, SVG Export Plug-In . SVG Version: 6.00 Build 0)  -->
<svg version="1.1" id="Layer_1" xmlns="http://www.w3.org/2000/svg" xmlns:xlink="http://www.w3.org/1999/xlink" x="0px" y="0px"
	 viewBox="0 0 180 180" style="enable-background:new 0 0 180 180;" xml:space="preserve">
<style type="text/css">
	.st0{fill:#C8D21E;}
	.st1{fill:#E6FA00;}
	.st2{fill:#00A551;}
	.st3{fill:#46BEC8;}
	.st4{fill:#00DCFF;}
	.st5{fill:#C85A82;}
	.st6{fill:#FF3CB4;}
</style>
<g>
	<path class="st0" d="M156.1,89.3c-0.9-0.2-1.4-1-1.4-2.3c0-2.1,1.4-4.6,3.2-5.6c1.1-0.6,2.1-0.6,2.7,0.1c0,0,8.1,8.1,8.1,8.1
		c0,0,0,0,0,0c0.1,0.1,0.2,0.3,0.2,0.6c0,0.7-0.5,1.5-1.1,1.9c-0.2,0.1-0.5,0.2-0.6,0.1C167.2,92.4,156.1,89.3,156.1,89.3z"/>
	<path class="st1" d="M166.8,91.6c0,0.7,0.5,1,1.1,0.6c0.6-0.3,1.1-1.2,1.1-1.9c0-0.7-0.5-1-1.1-0.6
		C167.2,90.1,166.8,90.9,166.8,91.6z"/>
	<path class="st2" d="M167.3,91.3c0,0.2,0.1,0.3,0.2,0.4c0.1,0.1,0.2,0,0.4,0c0.2-0.1,0.3-0.2,0.4-0.4c0.1-0.2,0.2-0.4,0.2-0.5
		c0-0.2-0.1-0.3-0.2-0.4c-0.1-0.1-0.2,0-0.4,0c-0.2,0.1-0.3,0.2-0.4,0.4C167.4,90.9,167.3,91.1,167.3,91.3z"/>
	<path class="st1" d="M174.8,95.6c0,0.2,0.1,0.3,0.2,0.4c0.1,0.1,0.2,0,0.4,0c0.2-0.1,0.3-0.2,0.4-0.4c0.1-0.2,0.2-0.4,0.2-0.5
		c0-0.2-0.1-0.3-0.2-0.4c-0.1-0.1-0.2,0-0.4,0c-0.2,0.1-0.3,0.2-0.4,0.4C174.9,95.3,174.8,95.5,174.8,95.6z"/>
	<path class="st1" d="M167.5,91.7c-0.1-0.1-0.2-0.2-0.2-0.4c0-0.2,0.1-0.4,0.2-0.5c0.1-0.2,0.2-0.3,0.4-0.4c0.2-0.1,0.3-0.1,0.4,0
		l7.5,4.3c-0.1-0.1-0.2,0-0.4,0c-0.2,0.1-0.3,0.2-0.4,0.4c-0.1,0.2-0.2,0.4-0.2,0.5c0,0.2,0.1,0.3,0.2,0.4L167.5,91.7z"/>
	<path class="st1" d="M155.6,89.2c-0.6-0.3-0.9-1.1-0.9-2.1c0-1,0.4-2.2,0.9-3.2c0.6-1,1.4-1.9,2.3-2.4c0.9-0.5,1.7-0.6,2.3-0.2
		L30.2,6.2c-0.6-0.3-1.4-0.3-2.3,0.2c-0.9,0.5-1.7,1.4-2.3,2.4c-0.6,1-0.9,2.2-0.9,3.2c0,1,0.4,1.8,0.9,2.1L155.6,89.2z"/>
</g>
<g>
	<path class="st3" d="M133.1,127c-0.9-0.2-1.4-1-1.4-2.3c0-2.1,1.4-4.6,3.2-5.6c1.1-0.6,2.1-0.6,2.7,0.1c0,0,8.1,8.1,8.1,8.1
		c0,0,0,0,0,0c0.1,0.1,0.2,0.3,0.2,0.6c0,0.7-0.5,1.5-1.1,1.9c-0.2,0.1-0.5,0.2-0.6,0.1C144.2,130,133.1,127,133.1,127z"/>
	<path class="st4" d="M143.8,129.3c0,0.7,0.5,1,1.1,0.6c0.6-0.3,1.1-1.2,1.1-1.9s-0.5-1-1.1-0.6
		C144.2,127.7,143.8,128.6,143.8,129.3z"/>
	<path class="st2" d="M144.3,128.9c0,0.2,0.1,0.3,0.2,0.4c0.1,0.1,0.2,0,0.4,0c0.2-0.1,0.3-0.2,0.4-0.4c0.1-0.2,0.2-0.4,0.2-0.5
		c0-0.2-0.1-0.3-0.2-0.4c-0.1-0.1-0.2,0-0.4,0c-0.2,0.1-0.3,0.2-0.4,0.4C144.4,128.6,144.3,128.8,144.3,128.9z"/>
	<path class="st4" d="M151.8,133.3c0,0.2,0.1,0.3,0.2,0.4c0.1,0.1,0.2,0,0.4,0c0.2-0.1,0.3-0.2,0.4-0.4c0.1-0.2,0.2-0.4,0.2-0.5
		c0-0.2-0.1-0.3-0.2-0.4c-0.1-0.1-0.2,0-0.4,0c-0.2,0.1-0.3,0.2-0.4,0.4C151.9,132.9,151.8,133.1,151.8,133.3z"/>
	<path class="st4" d="M144.5,129.3c-0.1-0.1-0.2-0.2-0.2-0.4c0-0.2,0.1-0.4,0.2-0.5c0.1-0.2,0.2-0.3,0.4-0.4c0.2-0.1,0.3-0.1,0.4,0
		l7.5,4.3c-0.1-0.1-0.2,0-0.4,0c-0.2,0.1-0.3,0.2-0.4,0.4c-0.1,0.2-0.2,0.4-0.2,0.5c0,0.2,0.1,0.3,0.2,0.4L144.5,129.3z"/>
	<path class="st4" d="M132.6,126.8c-0.6-0.3-0.9-1.1-0.9-2.1c0-1,0.4-2.2,0.9-3.2c0.6-1,1.4-1.9,2.3-2.4c0.9-0.5,1.7-0.6,2.3-0.2
		L7.2,43.9c-0.6-0.3-1.4-0.3-2.3,0.2c-0.9,0.5-1.7,1.4-2.3,2.4c-0.6,1-0.9,2.2-0.9,3.2c0,1,0.4,1.8,0.9,2.1L132.6,126.8z"/>
</g>
<g>
	<path class="st5" d="M148.2,166.2c-0.9-0.2-1.4-1-1.4-2.3c0-2.1,1.4-4.6,3.2-5.6c1.1-0.6,2.1-0.6,2.7,0.1c0,0,8.1,8.1,8.1,8.1
		c0,0,0,0,0,0c0.1,0.1,0.2,0.3,0.2,0.6c0,0.7-0.5,1.5-1.1,1.9c-0.2,0.1-0.5,0.2-0.6,0.1C159.3,169.3,148.3,166.3,148.2,166.2z"/>
	<path class="st6" d="M158.9,168.5c0,0.7,0.5,1,1.1,0.6c0.6-0.3,1.1-1.2,1.1-1.9c0-0.7-0.5-1-1.1-0.6
		C159.4,167,158.9,167.8,158.9,168.5z"/>
	<path class="st2" d="M159.4,168.2c0,0.2,0.1,0.3,0.2,0.4c0.1,0.1,0.2,0,0.4,0c0.2-0.1,0.3-0.2,0.4-0.4c0.1-0.2,0.2-0.4,0.2-0.5
		c0-0.2-0.1-0.3-0.2-0.4c-0.1-0.1-0.2,0-0.4,0c-0.2,0.1-0.3,0.2-0.4,0.4C159.5,167.8,159.4,168,159.4,168.2z"/>
	<path class="st6" d="M166.9,172.5c0,0.2,0.1,0.3,0.2,0.4c0.1,0.1,0.2,0,0.4,0c0.2-0.1,0.3-0.2,0.4-0.4c0.1-0.2,0.2-0.4,0.2-0.5
		c0-0.2-0.1-0.3-0.2-0.4c-0.1-0.1-0.2,0-0.4,0c-0.2,0.1-0.3,0.2-0.4,0.4C167,172.2,166.9,172.4,166.9,172.5z"/>
	<path class="st6" d="M159.6,168.6c-0.1-0.1-0.2-0.2-0.2-0.4c0-0.2,0.1-0.4,0.2-0.5c0.1-0.2,0.2-0.3,0.4-0.4c0.2-0.1,0.3-0.1,0.4,0
		l7.5,4.3c-0.1-0.1-0.2,0-0.4,0c-0.2,0.1-0.3,0.2-0.4,0.4c-0.1,0.2-0.2,0.4-0.2,0.5c0,0.2,0.1,0.3,0.2,0.4L159.6,168.6z"/>
	<path class="st6" d="M147.7,166.1c-0.6-0.3-0.9-1.1-0.9-2.1c0-1,0.4-2.2,0.9-3.2c0.6-1,1.4-1.9,2.3-2.4c0.9-0.5,1.7-0.6,2.3-0.2
		l-129.9-75c-0.6-0.3-1.4-0.3-2.3,0.2c-0.9,0.5-1.7,1.4-2.3,2.4c-0.6,1-0.9,2.2-0.9,3.2c0,1,0.4,1.8,0.9,2.1L147.7,166.1z"/>
</g>
</svg>
