<?xml version="1.0" encoding="utf-8"?>
<!-- Generator: Adobe Illustrator 19.1.0, SVG Export Plug-In . SVG Version: 6.00 Build 0)  -->
<svg version="1.1" id="Layer_1" xmlns="http://www.w3.org/2000/svg" xmlns:xlink="http://www.w3.org/1999/xlink" x="0px" y="0px"
	 viewBox="0 0 42 305.8" style="enable-background:new 0 0 42 305.8;" xml:space="preserve">
<style type="text/css">
	.st0{fill:#1EEB1E;}
	.st1{fill:#19CD19;}
	.st2{fill:#14B414;}
	.st3{fill:#FFFFFF;}
</style>
<g>
	<polygon class="st0" points="11.9,21.4 11.9,296.8 9.4,295.4 9.4,20 	"/>
	<polygon class="st1" points="28.9,8.8 31.3,10.2 11.9,21.4 9.4,20 	"/>
	<polygon class="st2" points="31.3,10.2 31.3,285.5 11.9,296.8 11.9,21.4 	"/>
	<g>
		<polygon class="st3" points="16.7,290.7 16.7,291.6 11.9,294.4 11.9,293.5 		"/>
	</g>
	<g>
		<polygon class="st3" points="15.5,280.1 15.5,281.1 11.9,283.2 11.9,282.2 		"/>
	</g>
	<g>
		<polygon class="st3" points="14.3,286.5 14.3,287.4 11.9,288.8 11.9,287.9 		"/>
	</g>
	<g>
		<polygon class="st3" points="14.3,275.2 14.3,276.2 11.9,277.6 11.9,276.6 		"/>
	</g>
	<g>
		<polygon class="st3" points="14.3,264 14.3,264.9 11.9,266.3 11.9,265.4 		"/>
	</g>
	<g>
		<polygon class="st3" points="14.3,252.7 14.3,253.7 11.9,255.1 11.9,254.1 		"/>
	</g>
	<g>
		<polygon class="st3" points="14.3,241.5 14.3,242.4 11.9,243.8 11.9,242.9 		"/>
	</g>
	<g>
		<polygon class="st3" points="14.3,230.3 14.3,231.2 11.9,232.6 11.9,231.7 		"/>
	</g>
	<g>
		<polygon class="st3" points="14.3,219 14.3,220 11.9,221.4 11.9,220.4 		"/>
	</g>
	<g>
		<polygon class="st3" points="14.3,207.8 14.3,208.7 11.9,210.1 11.9,209.2 		"/>
	</g>
	<g>
		<polygon class="st3" points="14.3,196.5 14.3,197.5 11.9,198.9 11.9,197.9 		"/>
	</g>
	<g>
		<polygon class="st3" points="14.3,185.3 14.3,186.2 11.9,187.6 11.9,186.7 		"/>
	</g>
	<g>
		<polygon class="st3" points="14.3,174.1 14.3,175 11.9,176.4 11.9,175.5 		"/>
	</g>
	<g>
		<polygon class="st3" points="14.3,162.8 14.3,163.8 11.9,165.2 11.9,164.2 		"/>
	</g>
	<g>
		<polygon class="st3" points="14.3,151.6 14.3,152.5 11.9,153.9 11.9,153 		"/>
	</g>
	<g>
		<polygon class="st3" points="14.3,140.4 14.3,141.3 11.9,142.7 11.9,141.8 		"/>
	</g>
	<g>
		<polygon class="st3" points="14.3,129.1 14.3,130 11.9,131.5 11.9,130.5 		"/>
	</g>
	<g>
		<polygon class="st3" points="14.3,117.9 14.3,118.8 11.9,120.2 11.9,119.3 		"/>
	</g>
	<g>
		<polygon class="st3" points="14.3,106.6 14.3,107.6 11.9,109 11.9,108 		"/>
	</g>
	<g>
		<polygon class="st3" points="14.3,95.4 14.3,96.3 11.9,97.7 11.9,96.8 		"/>
	</g>
	<g>
		<polygon class="st3" points="14.3,84.2 14.3,85.1 11.9,86.5 11.9,85.6 		"/>
	</g>
	<g>
		<polygon class="st3" points="14.3,72.9 14.3,73.9 11.9,75.3 11.9,74.3 		"/>
	</g>
	<g>
		<polygon class="st3" points="14.3,61.7 14.3,62.6 11.9,64 11.9,63.1 		"/>
	</g>
	<g>
		<polygon class="st3" points="14.3,50.4 14.3,51.4 11.9,52.8 11.9,51.8 		"/>
	</g>
	<g>
		<polygon class="st3" points="14.3,39.2 14.3,40.1 11.9,41.5 11.9,40.6 		"/>
	</g>
	<g>
		<polygon class="st3" points="14.3,28 14.3,28.9 11.9,30.3 11.9,29.4 		"/>
	</g>
	<g>
		<polygon class="st3" points="15.5,257.7 15.5,258.6 11.9,260.7 11.9,259.8 		"/>
	</g>
	<g>
		<polygon class="st3" points="15.5,235.2 15.5,236.1 11.9,238.2 11.9,237.3 		"/>
	</g>
	<g>
		<polygon class="st3" points="15.5,212.7 15.5,213.6 11.9,215.7 11.9,214.8 		"/>
	</g>
	<g>
		<polygon class="st3" points="15.5,190.2 15.5,191.2 11.9,193.3 11.9,192.3 		"/>
	</g>
	<g>
		<polygon class="st3" points="15.5,167.7 15.5,168.7 11.9,170.8 11.9,169.9 		"/>
	</g>
	<g>
		<polygon class="st3" points="15.5,145.3 15.5,146.2 11.9,148.3 11.9,147.4 		"/>
	</g>
	<g>
		<polygon class="st3" points="15.5,122.8 15.5,123.7 11.9,125.8 11.9,124.9 		"/>
	</g>
	<g>
		<polygon class="st3" points="15.5,100.3 15.5,101.2 11.9,103.4 11.9,102.4 		"/>
	</g>
	<g>
		<polygon class="st3" points="15.5,77.8 15.5,78.8 11.9,80.9 11.9,79.9 		"/>
	</g>
	<g>
		<polygon class="st3" points="15.5,55.4 15.5,56.3 11.9,58.4 11.9,57.5 		"/>
	</g>
	<g>
		<polygon class="st3" points="15.5,32.9 15.5,33.8 11.9,35.9 11.9,35 		"/>
	</g>
	<g>
		<polygon class="st3" points="16.7,268.2 16.7,269.1 11.9,271.9 11.9,271 		"/>
	</g>
	<g>
		<polygon class="st3" points="16.7,245.7 16.7,246.7 11.9,249.5 11.9,248.5 		"/>
	</g>
	<g>
		<polygon class="st3" points="16.7,223.2 16.7,224.2 11.9,227 11.9,226 		"/>
	</g>
	<g>
		<polygon class="st3" points="16.7,200.8 16.7,201.7 11.9,204.5 11.9,203.6 		"/>
	</g>
	<g>
		<polygon class="st3" points="16.7,178.3 16.7,179.2 11.9,182 11.9,181.1 		"/>
	</g>
	<g>
		<polygon class="st3" points="16.7,155.8 16.7,156.7 11.9,159.6 11.9,158.6 		"/>
	</g>
	<g>
		<polygon class="st3" points="16.7,133.3 16.7,134.3 11.9,137.1 11.9,136.1 		"/>
	</g>
	<g>
		<polygon class="st3" points="16.7,110.8 16.7,111.8 11.9,114.6 11.9,113.7 		"/>
	</g>
	<g>
		<polygon class="st3" points="16.7,88.4 16.7,89.3 11.9,92.1 11.9,91.2 		"/>
	</g>
	<g>
		<polygon class="st3" points="16.7,65.9 16.7,66.8 11.9,69.6 11.9,68.7 		"/>
	</g>
	<g>
		<polygon class="st3" points="16.7,43.4 16.7,44.4 11.9,47.2 11.9,46.2 		"/>
	</g>
	<g>
		<polygon class="st3" points="16.7,20.9 16.7,21.9 11.9,24.7 11.9,23.7 		"/>
	</g>
</g>
</svg>
