<?xml version="1.0" encoding="utf-8"?>
<!-- Generator: Adobe Illustrator 19.1.0, SVG Export Plug-In . SVG Version: 6.00 Build 0)  -->
<svg version="1.1" id="Layer_1" xmlns="http://www.w3.org/2000/svg" xmlns:xlink="http://www.w3.org/1999/xlink" x="0px" y="0px"
	 viewBox="0 0 170 130" style="enable-background:new 0 0 170 130;" xml:space="preserve">
<style type="text/css">
	.st0{fill:#1E1EEB;}
	.st1{fill:#1919CD;}
	.st2{fill:#1414B4;}
</style>
<polygon class="st0" points="167.7,126.6 41.8,82.4 41.8,28.7 167.7,101.3 "/>
<polygon class="st1" points="11.7,49.2 6.2,46 11.7,42.9 "/>
<polygon class="st1" points="8.9,3.4 61,33.4 55.5,36.6 3.5,6.5 "/>
<polygon class="st2" points="61,33.4 61,65 55.5,68.2 55.5,36.6 "/>
<path class="st0" d="M55.5,36.6l-52-30l2.7,7.9l5.5,3.2v31.6L6.2,46l-2.7,4.7l41.1,23.7l10.9-6.3L55.5,36.6z M36.3,57.1l-2.7,1.6
	l-10.9-6.3l0-25.3L36.3,35V57.1z"/>
<polygon class="st1" points="28.1,49.2 36.3,53.9 36.3,57.1 33.6,58.7 22.6,52.4 "/>
<polygon class="st2" points="28.1,30.2 28.1,49.2 22.6,52.4 22.6,27.1 "/>
<polygon class="st0" points="167.7,126.6 58.2,66.6 58.2,38.1 167.7,101.3 "/>
</svg>
