<?xml version="1.0" encoding="utf-8"?>
<!-- Generator: Adobe Illustrator 19.1.0, SVG Export Plug-In . SVG Version: 6.00 Build 0)  -->
<svg version="1.1" id="Layer_1" xmlns="http://www.w3.org/2000/svg" xmlns:xlink="http://www.w3.org/1999/xlink" x="0px" y="0px"
	 viewBox="-39 48 170 130" style="enable-background:new -39 48 170 130;" xml:space="preserve">
<style type="text/css">
	.st0{fill:#A6A6E2;}
	.st1{fill:#1919CD;}
	.st2{fill:#1414B4;}
	.st3{fill:#1E1EEB;}
</style>
<polygon class="st0" points="128.7,174.6 2.8,130.4 2.8,76.7 128.7,149.3 "/>
<polygon class="st1" points="-27.3,97.2 -32.8,94 -27.3,90.9 "/>
<polygon class="st1" points="-30.1,51.4 22,81.4 16.5,84.6 -35.5,54.5 "/>
<polygon class="st2" points="22,81.4 22,113 16.5,116.2 16.5,84.6 "/>
<path class="st3" d="M16.5,84.6l-52-30l2.7,7.9l5.5,3.2v31.6l-5.5-3.3l-2.7,4.7l41.1,23.7l10.9-6.3V84.6z M-2.7,105.1l-2.7,1.6
	l-10.9-6.3V75.1L-2.7,83V105.1z"/>
<polygon class="st1" points="-10.9,97.2 -2.7,101.9 -2.7,105.1 -5.4,106.7 -16.4,100.4 "/>
<polygon class="st2" points="-10.9,78.2 -10.9,97.2 -16.4,100.4 -16.4,75.1 "/>
<polygon class="st0" points="128.7,174.6 19.2,114.6 19.2,86.1 128.7,149.3 "/>
</svg>
