<?xml version="1.0" encoding="utf-8"?>
<!-- Generator: Adobe Illustrator 19.1.0, SVG Export Plug-In . SVG Version: 6.00 Build 0)  -->
<svg version="1.1" id="Layer_1" xmlns="http://www.w3.org/2000/svg" xmlns:xlink="http://www.w3.org/1999/xlink" x="0px" y="0px"
	 viewBox="0 0 250 225" style="enable-background:new 0 0 250 225;" xml:space="preserve">
<style type="text/css">
	.st0{fill:#B41414;}
	.st1{fill:#CD1919;}
	.st2{fill:#EB1E1E;}
	.st3{fill:#DC1E1E;}
</style>
<g id="Back">
	<polygon class="st0" points="88.1,81.6 67.5,93.6 46.8,105.5 26.1,117.4 5.4,129.4 5.4,105.5 5.4,81.6 22,48.2 38.5,14.8 46.8,10 
		55.1,5.2 71.6,19.6 88.1,33.9 88.1,57.8 	"/>
	<polygon class="st1" points="245.3,124.6 88.1,33.9 84,36.3 241.1,127 	"/>
	<polygon class="st2" points="241.1,174.7 84,84 84,36.3 241.1,127 	"/>
	<polygon class="st3" points="38.5,14.8 34.4,12.4 1.3,79.2 5.4,81.6 	"/>
	<polygon class="st1" points="38.5,14.8 34.4,12.4 50.9,2.8 55.1,5.2 	"/>
	<g id="Bottom">
		<polygon class="st1" points="166.7,222.5 1.3,127 84,79.2 249.4,174.7 		"/>
	</g>
</g>
</svg>
