<?xml version="1.0" encoding="utf-8"?>
<!-- Generator: Adobe Illustrator 19.1.0, SVG Export Plug-In . SVG Version: 6.00 Build 0)  -->
<svg version="1.1" id="Layer_1" xmlns="http://www.w3.org/2000/svg" xmlns:xlink="http://www.w3.org/1999/xlink" x="0px" y="0px"
	 viewBox="-174 188 250 225" style="enable-background:new -174 188 250 225;" xml:space="preserve">
<style type="text/css">
	.st0{fill:#FF0000;}
	.st1{fill:#FF0000;stroke:#FFFFFF;stroke-width:2;stroke-miterlimit:10;}
	.st2{fill:none;stroke:#FFFFFF;stroke-width:2;stroke-miterlimit:10;}
	.st3{display:none;}
	.st4{display:inline;fill:#FFFFFF;}
	.st5{display:inline;fill:#FF0000;stroke:#FFFFFF;stroke-width:2;stroke-miterlimit:10;}
	.st6{display:inline;fill:none;stroke:#FFFFFF;stroke-width:2;stroke-miterlimit:10;}
</style>
<g>
	<g>
		<polygon class="st0" points="-171.8,314.4 -89.8,267.2 73.9,361.7 -8,409 		"/>
	</g>
	<polygon class="st1" points="73.9,314.4 -89.8,219.9 -106.2,205.7 -122.6,191.5 -130.8,196.2 -139,200.9 -155.3,234.1 
		-171.7,266.6 -171.7,290.8 -171.7,314.4 -171.6,314.4 -151.2,302.7 -130.8,290.8 -110.3,279 -89.8,267.2 73.9,361.7 73.9,361.7 	
		"/>
	<line class="st2" x1="-89.8" y1="219.9" x2="-89.8" y2="267.2"/>
</g>
<g class="st3">
	<path class="st4" d="M24.8,295.5l4.1-2.3l-152.2-87.9c-0.3-0.2-0.6-0.3-0.9-0.3c-0.3-0.1-0.7-0.1-1-0.1c-0.4,0-0.8,0.1-1.2,0.3
		c-0.4,0.1-0.8,0.3-1.2,0.6c-0.4,0.2-0.8,0.5-1.2,0.9c-0.4,0.3-0.8,0.7-1.2,1.1c-0.4,0.4-0.7,0.8-1,1.3c-0.3,0.4-0.6,0.9-0.9,1.4
		s-0.5,1-0.8,1.5c-0.2,0.5-0.4,1-0.6,1.5s-0.3,1-0.4,1.5c-0.1,0.5-0.1,1-0.1,1.5s0,0.9,0.1,1.4c0.1,0.4,0.2,0.8,0.4,1.1
		s0.3,0.6,0.6,0.9c0.2,0.2,0.5,0.5,0.8,0.6l150.8,87.1L24.8,295.5z"/>
</g>
<g class="st3">
	<polygon class="st5" points="73.9,361.7 73.9,338 73.9,314.3 57.5,300.2 41.2,286 33,290.7 24.8,295.5 8.4,328.6 -8,361.7 
		-171.5,267.2 -171.8,267.6 -171.8,314.4 -8,409 	"/>
	<path class="st4" d="M42.2,303.8c0,3.9-2.7,8.7-6.1,10.6c-3.4,2-6.1,0.4-6.1-3.5s2.7-8.7,6.1-10.6
		C39.5,298.3,42.2,299.9,42.2,303.8"/>
	<line class="st6" x1="-8" y1="361.7" x2="-8" y2="409"/>
</g>
</svg>
