<?xml version="1.0" encoding="utf-8"?>
<!-- Generator: Adobe Illustrator 19.1.0, SVG Export Plug-In . SVG Version: 6.00 Build 0)  -->
<svg version="1.1" id="Layer_1" xmlns="http://www.w3.org/2000/svg" xmlns:xlink="http://www.w3.org/1999/xlink" x="0px" y="0px"
	 viewBox="0 0 250 225" style="enable-background:new 0 0 250 225;" xml:space="preserve">
<style type="text/css">
	.st0{fill:#FFFFFF;}
</style>
<g id="Handle">
	<path class="st0" d="M42.4,34.3c-0.3-0.2-0.5-0.4-0.8-0.6c-0.2-0.3-0.4-0.5-0.6-0.9c-0.2-0.3-0.3-0.7-0.4-1.1
		c-0.1-0.4-0.1-0.9-0.1-1.4c0-0.5,0-1,0.1-1.5c0.1-0.5,0.2-1,0.4-1.6c0.2-0.5,0.3-1,0.6-1.5c0.2-0.5,0.5-1,0.8-1.5
		c0.3-0.5,0.6-1,0.9-1.4c0.3-0.4,0.7-0.9,1.1-1.3c0.4-0.4,0.8-0.8,1.2-1.1c0.4-0.3,0.8-0.6,1.2-0.9c0.4-0.2,0.8-0.4,1.2-0.6
		c0.4-0.1,0.8-0.2,1.2-0.3c0.4,0,0.7,0,1.1,0.1c0.3,0.1,0.6,0.2,0.9,0.3l161.3,93.1c0.6,0.3,1,0.8,1.3,1.5c0.3,0.7,0.5,1.5,0.5,2.5
		c0,1-0.2,2-0.5,3.1c-0.3,1-0.8,2.1-1.3,3c-0.6,1-1.2,1.9-2,2.7c-0.7,0.8-1.6,1.5-2.4,2c-0.9,0.5-1.7,0.8-2.4,0.8
		c-0.7,0.1-1.4-0.1-2-0.4L42.4,34.3z"/>
</g>
</svg>
