<?xml version="1.0" encoding="utf-8"?>
<!-- Generator: Adobe Illustrator 19.1.0, SVG Export Plug-In . SVG Version: 6.00 Build 0)  -->
<svg version="1.1" id="Layer_1" xmlns="http://www.w3.org/2000/svg" xmlns:xlink="http://www.w3.org/1999/xlink" x="0px" y="0px"
	 viewBox="0 0 250 225" style="enable-background:new 0 0 250 225;" xml:space="preserve">
<style type="text/css">
	.st0{fill:#EB1E1E;}
	.st1{fill:#CD1919;}
	.st2{fill:#B41414;}
	.st3{fill:#FFFFFF;}
	.st4{fill:#DC1E1E;}
</style>
<g id="Front">
	<polygon class="st0" points="166.7,222.5 1.3,127 1.3,79.2 166.7,174.7 	"/>
	<polygon class="st1" points="166.7,170 9.6,79.2 5.4,81.6 162.6,172.4 	"/>
	<polygon class="st2" points="249.4,174.7 208.1,198.6 166.7,222.5 166.7,174.7 199.8,107.9 216.3,98.3 249.4,127 	"/>
	<path class="st3" d="M214.3,116.3c0,4-2.8,8.8-6.2,10.7c-3.4,2-6.2,0.4-6.2-3.6c0-4,2.8-8.8,6.2-10.7
		C211.5,110.7,214.3,112.3,214.3,116.3z"/>
	<polygon class="st4" points="199.8,107.9 195.7,105.5 162.6,172.4 166.7,174.7 	"/>
	<polygon class="st1" points="199.8,107.9 195.7,105.5 212.2,96 216.3,98.3 	"/>
</g>
</svg>
