<?xml version="1.0" encoding="utf-8"?>
<!-- Generator: Adobe Illustrator 19.1.0, SVG Export Plug-In . SVG Version: 6.00 Build 0)  -->
<svg version="1.1" id="Layer_1" xmlns="http://www.w3.org/2000/svg" xmlns:xlink="http://www.w3.org/1999/xlink" x="0px" y="0px"
	 viewBox="0 0 250 225" style="enable-background:new 0 0 250 225;" xml:space="preserve">
<style type="text/css">
	.st0{display:none;}
	.st1{display:inline;}
	.st2{fill:#232323;}
	.st3{display:inline;fill:#232323;stroke:#FFFFFF;stroke-width:2;stroke-miterlimit:10;}
	.st4{display:inline;fill:none;stroke:#FFFFFF;stroke-width:2;stroke-miterlimit:10;}
	.st5{fill:#FFFFFF;}
	.st6{display:inline;fill:#FFFFFF;}
</style>
<g class="st0">
	<g class="st1">
		<polygon class="st2" points="2.2,126.4 84.2,79.2 247.9,173.7 166,221 		"/>
	</g>
	<polygon class="st3" points="247.9,126.4 84.2,31.9 67.8,17.7 51.4,3.5 43.2,8.2 35,12.9 18.7,46.1 2.3,78.6 2.3,102.8 2.3,126.4 
		2.4,126.4 22.8,114.7 43.2,102.8 63.7,91 84.2,79.2 247.9,173.7 247.9,173.7 	"/>
	<line class="st4" x1="84.2" y1="31.9" x2="84.2" y2="79.2"/>
</g>
<g>
	<path class="st5" d="M198.8,107.5l4.1-2.3L50.7,17.3c-0.3-0.2-0.6-0.3-0.9-0.3c-0.3-0.1-0.7-0.1-1-0.1c-0.4,0-0.8,0.1-1.2,0.3
		c-0.4,0.1-0.8,0.3-1.2,0.6c-0.4,0.2-0.8,0.5-1.2,0.9c-0.4,0.3-0.8,0.7-1.2,1.1c-0.4,0.4-0.7,0.8-1,1.3c-0.3,0.4-0.6,0.9-0.9,1.4
		c-0.3,0.5-0.5,1-0.8,1.5c-0.2,0.5-0.4,1-0.6,1.5c-0.2,0.5-0.3,1-0.4,1.5c-0.1,0.5-0.1,1-0.1,1.5s0,0.9,0.1,1.4
		c0.1,0.4,0.2,0.8,0.4,1.1c0.2,0.3,0.3,0.6,0.6,0.9c0.2,0.2,0.5,0.5,0.8,0.6l150.8,87.1L198.8,107.5z"/>
</g>
<g class="st0">
	<polygon class="st3" points="247.9,173.7 247.9,150 247.9,126.3 231.5,112.2 215.2,98 207,102.7 198.8,107.5 182.4,140.6 
		166,173.7 2.5,79.2 2.2,79.6 2.2,126.4 166,221 	"/>
	<path class="st6" d="M216.2,115.8c0,3.9-2.7,8.7-6.1,10.6c-3.4,2-6.1,0.4-6.1-3.5s2.7-8.7,6.1-10.6
		C213.5,110.3,216.2,111.9,216.2,115.8"/>
	<line class="st4" x1="166" y1="173.7" x2="166" y2="221"/>
</g>
</svg>
