<?xml version="1.0" encoding="utf-8"?>
<!-- Generator: Adobe Illustrator 19.1.0, SVG Export Plug-In . SVG Version: 6.00 Build 0)  -->
<svg version="1.1" id="Layer_1" xmlns="http://www.w3.org/2000/svg" xmlns:xlink="http://www.w3.org/1999/xlink" x="0px" y="0px"
	 viewBox="0 0 210 130" style="enable-background:new 0 0 210 130;" xml:space="preserve">
<style type="text/css">
	.st0{fill:#7D1EFF;}
	.st1{fill:#5514B4;}
	.st2{fill:#6E19E6;}
	.st3{fill:#6419CD;}
</style>
<g>
	<path class="st0" d="M35.6,31.7c-4.6,0.7-9.4,0.7-14.1,0c-4.6-0.7-9-2.1-12.6-4.2C3.6,24.5,1,20.4,1,16.4v9c0,4.1,2.7,8.1,8.1,11.2
		c3.6,2.1,8,3.5,12.6,4.2c4.6,0.7,9.5,0.7,14.1,0V31.7z"/>
	<polygon class="st0" points="154.9,109.6 35.6,40.7 35.6,31.7 154.9,100.6 	"/>
	<polygon class="st1" points="173.2,99.9 168.2,110.5 168.2,119.5 173.2,108.9 	"/>
	<g>
		<path class="st0" d="M185.4,129.4c-8.3,0.7-17-0.8-23.4-4.5c-5.4-3.1-8.1-7.2-8.1-11.2v-8.9c0,4.1,2.7,8.1,8.1,11.2
			c6.4,3.7,15.1,5.2,23.4,4.5V129.4z"/>
	</g>
	<polygon class="st2" points="191.6,97 173.2,99.9 173.2,108.9 191.6,106 	"/>
	<polygon class="st0" points="191.6,97 208.8,106.9 208.8,115.9 191.6,106 	"/>
	<path class="st0" d="M208.8,115.9c0.2-0.7,0.3-1.5,0.3-2.2v-9c0,0.8-0.1,1.5-0.3,2.2V115.9z"/>
	<path class="st3" d="M9,5.1C-1.7,11.3-1.7,21.4,9,27.6c7.2,4.2,17.4,5.5,26.6,4.1l119.2,68.8c-2.5,5.3-0.1,11.2,7.1,15.4
		c6.4,3.7,15.1,5.2,23.4,4.5l-17.1-9.9l4.9-10.6l18.4-2.9l17.1,9.9c1.2-4.8-1.4-9.8-7.8-13.5c-7.2-4.2-17.4-5.5-26.6-4.1L55.1,20.5
		c2.5-5.3,0.1-11.2-7.1-15.4C37.2-1.1,19.8-1.1,9,5.1z M18.8,10.7c5.4-3.1,14.1-3.1,19.5,0c5.4,3.1,5.4,8.1,0,11.3
		c-5.4,3.1-14.1,3.1-19.5,0C13.4,18.9,13.4,13.8,18.8,10.7z"/>
	<path class="st2" d="M17.2,20.9c0.5-0.4,1-0.8,1.6-1.1c2.7-1.6,6.2-2.3,9.7-2.3c3.5,0,7.1,0.8,9.7,2.3c0.6,0.4,1.1,0.7,1.6,1.1
		c1.6-1.4,2.4-2.9,2.4-4.5c0-2-1.3-4.1-4-5.6c-2.7-1.6-6.2-2.3-9.7-2.3c-3.5,0-7.1,0.8-9.7,2.3c-2.7,1.6-4,3.6-4,5.6
		C14.7,17.9,15.6,19.5,17.2,20.9z"/>
</g>
</svg>
