<?xml version="1.0" encoding="utf-8"?>
<!-- Generator: Adobe Illustrator 19.1.0, SVG Export Plug-In . SVG Version: 6.00 Build 0)  -->
<svg version="1.1" id="Layer_1" xmlns="http://www.w3.org/2000/svg" xmlns:xlink="http://www.w3.org/1999/xlink" x="0px" y="0px"
	 viewBox="0 0 220 140" style="enable-background:new 0 0 220 140;" xml:space="preserve">
<style type="text/css">
	.st0{fill:#BBBDBF;}
	.st1{fill:#231F20;stroke:#FFFFFF;stroke-width:2;stroke-miterlimit:10;}
</style>
<path class="st0" d="M22.2,25.9c0.5-0.4,1-0.8,1.6-1.1c2.7-1.6,6.2-2.3,9.7-2.3c3.5,0,7.1,0.8,9.7,2.3c0.6,0.4,1.1,0.7,1.6,1.1
	c1.6-1.4,2.4-2.9,2.4-4.5c0-2-1.3-4.1-4-5.6c-2.7-1.6-6.2-2.3-9.7-2.3c-3.5,0-7.1,0.8-9.7,2.3c-2.7,1.6-4,3.6-4,5.6
	C19.7,22.9,20.6,24.5,22.2,25.9z"/>
<path class="st0" d="M40.6,36.7c-4.6,0.7-9.4,0.7-14.1,0c-4.6-0.7-9-2.1-12.6-4.2C8.6,29.5,6,25.4,6,21.4v9c0,4.1,2.7,8.1,8.1,11.2
	c3.6,2.1,8,3.5,12.6,4.2c4.6,0.7,9.5,0.7,14.1,0V36.7z"/>
<polygon class="st0" points="159.9,114.6 40.6,45.7 40.6,36.7 159.9,105.6 "/>
<polygon class="st0" points="178.2,104.9 173.2,115.5 173.2,124.5 178.2,113.9 "/>
<g>
	<path class="st0" d="M190.4,134.4c-8.3,0.7-17-0.8-23.4-4.5c-5.4-3.1-8.1-7.2-8.1-11.3v-8.9c0,4.1,2.7,8.1,8.1,11.2
		c6.4,3.7,15.1,5.2,23.4,4.5V134.4z"/>
</g>
<polygon class="st0" points="196.6,102 178.2,104.9 178.2,113.9 196.6,111 "/>
<polygon class="st0" points="196.6,102 213.8,111.9 213.8,120.9 196.6,111 "/>
<path class="st0" d="M213.8,120.9c0.2-0.7,0.3-1.5,0.3-2.2v-9c0,0.8-0.1,1.5-0.3,2.2V120.9z"/>
<path class="st1" d="M14,10.1C3.3,16.3,3.3,26.4,14,32.6c7.2,4.2,17.4,5.5,26.6,4.1l119.2,68.8c-2.5,5.3-0.1,11.2,7.1,15.4
	c6.4,3.7,15.1,5.2,23.4,4.5l-17.1-9.9l4.9-10.6l18.4-2.9l17.1,9.9c1.2-4.8-1.4-9.8-7.8-13.5c-7.2-4.2-17.4-5.5-26.6-4.1L60.1,25.5
	c2.5-5.3,0.1-11.2-7.1-15.4C42.2,3.9,24.8,3.9,14,10.1z M23.8,15.7c5.4-3.1,14.1-3.1,19.5,0c5.4,3.1,5.4,8.1,0,11.3
	c-5.4,3.1-14.1,3.1-19.5,0C18.4,23.9,18.4,18.8,23.8,15.7z"/>
</svg>
